<svg xmlns="http://www.w3.org/2000/svg" version="1.1" xmlns:xlink="http://www.w3.org/1999/xlink" xmlns:svgjs="http://svgjs.dev/svgjs" viewBox="0 0 800 800"><defs><filter id="uuunion-blur" x="-100%" y="-100%" width="400%" height="400%" color-interpolation-filters="sRGB">
        <feGaussianBlur in="SourceGraphic" stdDeviation="5 0" result="blur"></feGaussianBlur>
        <feDropShadow stdDeviation="29.53846153846154" in="blur" dx="24" dy="24" flood-color="hsl(132, 54%, 38%)" flood-opacity="0.15" x="0%" y="0%" width="100%" height="100%"></feDropShadow>
      </filter><filter id="uuunion-blur2" x="-100%" y="-100%" width="400%" height="400%" color-interpolation-filters="sRGB">
        <feGaussianBlur in="SourceGraphic" stdDeviation="5 0" result="blur"></feGaussianBlur>
        <feDropShadow stdDeviation="29.53846153846154" in="blur" dx="-24" dy="-24" flood-color="hsl(132, 54%, 38%)" flood-opacity="0.15" x="0%" y="0%" width="100%" height="100%"></feDropShadow>
      </filter><linearGradient gradientTransform="rotate(279, 0.5, 0.5)" x1="50%" y1="0%" x2="50%" y2="100%" id="uuunion-grad"><stop stop-color="hsl(127, 12%, 77%)" offset="10%"></stop><stop stop-color="hsl(132, 54%, 38%)" offset="90%"></stop></linearGradient><linearGradient gradientTransform="rotate(135, 0.5, 0.5)" x1="50%" y1="0%" x2="50%" y2="100%" id="uuunion-grad2"><stop stop-color="hsl(127, 12%, 77%)" offset="25%"></stop><stop stop-color="hsl(132, 54%, 38%)" offset="100%"></stop></linearGradient><linearGradient gradientTransform="rotate(333, 0.5, 0.5)" x1="50%" y1="0%" x2="50%" y2="100%" id="uuunion-grad3"><stop stop-color="hsl(127, 12%, 77%)" offset="0%"></stop><stop stop-color="hsl(132, 54%, 38%)" offset="75%"></stop></linearGradient></defs><path d="M-77.9 -79.3Q-63.48 -77.2 -49.06 -75.31 -34.64 -73.78 -20.22 -72.72 -5.8 -72.23 8.61 -72.33 23.04 -73.02 37.46 -74.24 51.88 -75.9 66.3 -77.88 80.72 -80.02 95.14 -82.16 109.56 -84.13 123.99 -85.79 138.41 -87 152.83 -87.67 167.25 -87.76 181.67 -87.25 196.09 -86.18 210.51 -84.64 224.94 -82.75 239.36 -80.64 253.78 -78.48 268.2 -76.44 282.62 -74.67 297.04 -73.31 311.46 -72.47 325.89 -72.2 340.31 -72.52 354.73 -73.42 369.15 -74.83 383.57 -76.63 397.99 -78.68 412.41 -80.84 426.84 -82.94 441.26 -84.81 455.68 -86.3 470.1 -87.32 484.52 -87.77 498.94 -87.63 513.36 -86.9 527.78 -85.65 542.21 -83.96 556.63 -81.96 571.05 -79.82 585.47 -77.68 599.89 -75.73 614.31 -74.1 628.73 -72.93 643.16 -72.29 657.58 -72.25 672 -72.8 686.42 -73.9 700.84 -75.47 715.26 -77.39 729.68 -79.5 744.11 -81.66 758.53 -83.68 772.95 -85.43 787.37 -86.75 801.79 -87.56 816.21 -87.79 830.63 -87.42 845.06 -86.48 845.72 -71.83 849.7 -57.17 856.61 -42.51 865.79 -27.86 876.35 -13.2 887.25 1.45 897.46 16.1 905.98 30.76 911.97 45.42 914.87 60.07 914.4 74.73 910.58 89.39 903.81 104.05 894.73 118.7 884.22 133.36 873.31 148.02 863.04 162.67 854.41 177.33 848.26 191.99 845.19 206.64 845.48 221.3 849.12 235.96 855.75 250.61 864.73 265.27 875.19 279.93 886.11 294.58 896.44 309.24 905.18 323.9 911.48 338.56 914.72 353.21 914.61 367.87 911.14 382.53 904.65 397.18 895.78 411.84 885.38 426.5 874.45 441.15 864.07 455.81 855.22 470.47 848.78 485.12 845.36 499.78 845.29 514.44 848.59 529.09 854.93 543.75 863.69 558.41 874.04 573.06 884.96 587.72 895.4 602.38 904.35 617.04 910.94 631.69 914.54 646.35 914.78 661.01 911.66 675.66 905.47 690.32 896.81 704.98 886.52 719.63 875.61 734.29 865.11 748.95 856.06 763.6 849.33 778.26 845.56 792.92 845.14 807.57 848.08 822.23 851.04 842.16 833.24 845.81 818.53 846.82 803.82 850.36 789.1 856.18 774.39 863.83 759.68 872.71 744.96 882.15 730.25 891.43 715.54 899.83 700.83 906.71 686.11 911.54 671.4 913.95 656.69 913.76 641.97 910.98 627.26 905.83 612.55 898.69 597.83 890.13 583.12 880.78 568.41 871.37 553.69 862.63 538.98 855.22 524.27 849.7 509.56 846.51 494.84 845.89 480.13 847.88 465.42 852.33 450.7 858.9 435.99 867.1 421.28 876.28 406.56 885.74 391.85 894.77 377.14 902.66 362.42 908.81 347.71 912.76 333 914.19 318.29 913 303.57 909.29 288.86 903.32 274.15 895.57 259.43 886.62 244.72 877.17 230.01 867.93 215.29 859.62 200.58 852.87 185.87 848.2 171.15 845.96 156.44 846.34 141.73 849.3 127.01 854.61 112.3 861.86 97.59 870.51 82.88 879.88 68.16 889.27 53.45 897.94 38.74 905.23 24.02 910.59 9.31 913.61 -5.39 914.05 -20.11 911.88 -34.82 907.26 -49.53 900.55 -64.25 892.27 -78.96 883.05 -78.45 868.01 -78.09 852.97 -77.91 837.94 -77.93 822.9 -78.16 807.86 -78.56 792.82 -79.1 777.79 -79.73 762.75 -80.39 747.71 -81 732.68 -81.52 717.64 -81.89 702.6 -82.08 687.57 -82.06 672.53 -81.85 657.49 -81.45 642.46 -80.92 627.42 -80.29 612.38 -79.64 597.35 -79.02 582.31 -78.5 567.27 -78.12 552.24 -77.92 537.2 -77.92 522.16 -78.13 507.13 -78.51 492.09 -79.04 477.05 -79.66 462.02 -80.32 446.98 -80.94 431.94 -81.47 416.9 -81.86 401.87 -82.07 386.83 -82.07 371.79 -81.88 356.76 -81.5 341.72 -80.98 326.68 -80.36 311.65 -79.71 296.61 -79.08 281.57 -78.54 266.54 -78.15 251.5 -77.93 236.46 -77.91 221.43 -78.1 206.39 -78.46 191.35 -78.98 176.32 -79.59 161.28 -80.25 146.24 -80.88 131.21 -81.42 116.17 -81.83 101.13 -82.05 86.1 -82.08 71.06 -81.91 56.02 -81.55 40.99 -81.04 25.95 -80.43 10.91 -79.78 -4.12 -79.15 -19.15 -78.6 -34.19 -78.18 -49.23 -77.94 -64.26 -77.9 -79.3" fill="url(#uuunion-grad)"></path><path d="M-77.9 -79.3Q-77.94 -64.26 -78.18 -49.23 -78.6 -34.19 -79.15 -19.15 -79.78 -4.12 -80.43 10.91 -81.04 25.95 -81.55 40.99 -81.91 56.02 -82.08 71.06 -82.05 86.1 -81.83 101.13 -81.42 116.17 -80.88 131.21 -80.25 146.24 -79.59 161.28 -78.98 176.32 -78.46 191.35 -78.1 206.39 -77.91 221.43 -77.93 236.46 -78.15 251.5 -78.54 266.54 -79.08 281.57 -79.71 296.61 -80.36 311.65 -80.98 326.68 -81.5 341.72 -81.88 356.76 -82.07 371.79 -82.07 386.83 -81.86 401.87 -71.51 405.69 -61.17 409.31 -50.83 412.62 -40.48 415.49 -30.14 417.84 -19.8 419.57 -0.41 420.9 2.94 420.98 15.92 413.83 28.92 405.64 41.91 396.52 54.87 386.64 67.77 376.2 80.59 365.45 93.32 354.62 105.92 343.95 118.38 333.67 130.69 324 142.84 315.1 154.83 307.1 166.65 300.08 178.31 294.05 189.82 289 201.19 284.83 212.44 281.42 223.59 278.61 234.67 276.2 245.71 273.99 256.74 271.75 267.78 269.27 278.89 266.36 290.09 262.85 301.42 258.61 312.91 253.54 324.6 247.6 336.51 240.8 348.67 233.17 361.11 224.81 373.83 215.84 386.85 206.43 400.18 196.75 413.81 186.99 427.73 177.33 441.94 167.95 456.41 159.02 471.11 150.67 486.01 142.98 501.08 136.03 516.26 129.84 531.52 124.37 546.8 119.58 562.05 115.37 577.21 111.61 592.23 108.16 607.06 104.88 621.64 101.58 635.92 98.12 649.87 94.36 663.43 90.17 676.57 85.45 689.27 80.13 701.5 74.19 713.25 67.62 724.53 60.47 735.33 52.78 745.67 44.67 755.58 36.23 765.08 27.6 774.22 18.9 783.05 10.28 791.62 1.85 800 -6.26 788.59 -23.46 778.68 -40.66 771.57 -57.86 768.2 -75.06 769.01 -92.26 773.89 -109.45 780.14 -134.53 763.3 -140.77 748.53 -139.07 733.75 -137.45 718.97 -136.02 704.19 -134.89 689.42 -134.15 674.64 -133.85 659.86 -134.02 645.08 -134.63 630.31 -135.66 615.53 -137.01 600.75 -138.59 585.97 -140.27 571.2 -141.94 556.42 -143.45 541.64 -144.71 526.86 -145.61 512.09 -146.08 497.31 -146.09 482.53 -145.64 467.75 -144.77 452.98 -143.53 438.2 -142.02 423.42 -140.36 408.64 -138.68 393.87 -137.09 379.09 -135.72 364.31 -134.68 349.54 -134.04 334.76 -133.85 319.98 -134.12 305.2 -134.84 290.43 -135.95 275.65 -137.37 260.87 -138.99 246.09 -140.68 231.32 -142.32 216.54 -143.78 201.76 -144.96 186.98 -145.76 172.21 -146.13 157.43 -146.03 142.65 -145.47 127.87 -144.5 113.1 -143.19 98.32 -141.64 83.54 -139.96 68.76 -138.28 53.99 -136.74 39.21 -135.44 24.43 -134.49 9.65 -133.95 -5.11 -133.87 -19.89 -134.26 -34.67 -135.08 -49.45 -136.27 -64.22 -137.74 -79 -139.39 -93.78 -141.08 -108.55 -142.69 -123.33 -144.09 -132.16 -131.94 -114.34 -113.91 -105.06 -105.45 -95.91 -96.85 -86.86 -88.12 -77.9 -79.3" fill="url(#uuunion-grad2)" filter="url(#uuunion-blur)"></path><path d="M828.39 386.83Q838.73 384.04 849.08 381.8 859.42 380.18 869.76 379.24 880.11 379.01 890.45 379.49 902.72 388.93 895.78 411.84 885.38 426.5 874.45 441.15 864.07 455.81 855.22 470.47 848.78 485.12 845.36 499.78 845.29 514.44 848.59 529.09 854.93 543.75 863.69 558.41 874.04 573.06 884.96 587.72 895.4 602.38 904.35 617.04 910.94 631.69 914.54 646.35 914.78 661.01 911.66 675.66 905.47 690.32 896.81 704.98 886.52 719.63 875.61 734.29 865.11 748.95 856.06 763.6 849.33 778.26 845.56 792.92 845.14 807.57 848.08 822.23 851.65 842.28 835.67 845.9 822.16 846.33 808.66 848.93 795.16 853.54 781.66 859.86 768.15 867.48 754.65 875.91 741.15 884.6 727.65 893 714.14 900.56 700.64 906.78 687.14 911.28 673.64 913.75 660.13 914.04 646.63 912.14 633.13 908.15 619.63 902.34 606.13 895.09 592.62 886.87 579.12 878.2 565.62 869.64 552.12 861.76 538.61 855.05 525.11 849.96 511.61 846.8 498.11 845.8 484.6 847 471.1 850.33 457.6 855.59 444.1 862.42 430.6 870.38 417.09 878.97 403.59 887.62 390.09 895.78 376.59 902.92 363.08 908.58 349.58 912.39 336.08 914.11 322.58 913.62 309.07 910.96 295.57 906.3 282.07 899.93 268.57 892.28 255.06 883.84 241.56 875.14 228.06 866.76 214.56 859.24 201.06 853.05 187.55 848.61 174.05 846.2 160.55 845.97 147.05 847.94 133.54 851.98 120.04 857.83 106.54 865.12 93.04 873.36 79.53 882.04 66.03 890.58 52.53 898.44 39.03 905.11 25.53 910.15 5.19 908.58 -1.77 893.64 -1.87 883.36 -1.93 873.09 -1.96 862.81 -1.94 852.54 -1.59 837.13 -0.81 832 11.4 824.72 23.73 815.82 36.18 805.44 48.75 793.82 61.46 781.25 74.31 768.1 87.29 754.72 100.4 741.5 113.63 728.81 126.96 716.99 140.38 706.31 153.86 697.02 167.38 689.24 180.91 683.05 194.43 678.42 207.89 675.25 221.27 673.35 234.55 672.49 247.68 672.36 260.65 672.63 273.43 672.95 286 672.97 298.34 672.35 310.45 670.81 322.3 668.11 333.91 664.07 345.27 658.59 356.39 651.65 367.29 643.3 377.99 633.68 388.52 622.98 398.9 611.44 409.18 599.36 419.39 587.07 429.57 574.87 439.78 563.09 450.06 552.02 460.45 541.89 471 532.92 481.76 525.21 492.78 518.85 504.09 513.8 515.72 510 527.72 507.29 540.1 505.47 552.88 504.29 566.08 503.48 579.7 502.73 593.72 501.76 608.15 500.29 622.96 498.07 638.11 494.9 653.58 490.63 669.32 485.16 685.27 478.49 701.39 470.63 717.62 461.71 733.88 451.88 750.1 441.33 766.23 430.32 782.19 419.11 797.92 407.95 813.33 397.11 828.39 386.83 828.39 386.83 828.39 386.83" fill="url(#uuunion-grad3)" filter="url(#uuunion-blur2)"></path></svg>