<svg xmlns="http://www.w3.org/2000/svg" version="1.1" xmlns:xlink="http://www.w3.org/1999/xlink" xmlns:svgjs="http://svgjs.dev/svgjs" viewBox="0 0 1422 800"><defs><linearGradient x1="50%" y1="0%" x2="50%" y2="100%" id="oooscillate-grad"><stop stop-color="hsl(301, 74%, 39%)" stop-opacity="1" offset="0%"></stop><stop stop-color="hsl(331, 69%, 48%)" stop-opacity="1" offset="100%"></stop></linearGradient></defs><g stroke-width="6.5" stroke="url(#oooscillate-grad)" fill="none" stroke-linecap="round"><path d="M 0 1496 Q 355.5 -100 711 400 Q 1066.5 900 1422 1496"></path><path d="M 0 1474 Q 355.5 -100 711 400 Q 1066.5 900 1422 1474"></path><path d="M 0 1452 Q 355.5 -100 711 400 Q 1066.5 900 1422 1452"></path><path d="M 0 1430 Q 355.5 -100 711 400 Q 1066.5 900 1422 1430"></path><path d="M 0 1408 Q 355.5 -100 711 400 Q 1066.5 900 1422 1408"></path><path d="M 0 1386 Q 355.5 -100 711 400 Q 1066.5 900 1422 1386"></path><path d="M 0 1364 Q 355.5 -100 711 400 Q 1066.5 900 1422 1364"></path><path d="M 0 1342 Q 355.5 -100 711 400 Q 1066.5 900 1422 1342"></path><path d="M 0 1320 Q 355.5 -100 711 400 Q 1066.5 900 1422 1320"></path><path d="M 0 1298 Q 355.5 -100 711 400 Q 1066.5 900 1422 1298"></path><path d="M 0 1276 Q 355.5 -100 711 400 Q 1066.5 900 1422 1276"></path><path d="M 0 1254 Q 355.5 -100 711 400 Q 1066.5 900 1422 1254"></path><path d="M 0 1232 Q 355.5 -100 711 400 Q 1066.5 900 1422 1232"></path><path d="M 0 1210 Q 355.5 -100 711 400 Q 1066.5 900 1422 1210"></path><path d="M 0 1188 Q 355.5 -100 711 400 Q 1066.5 900 1422 1188"></path><path d="M 0 1166 Q 355.5 -100 711 400 Q 1066.5 900 1422 1166"></path><path d="M 0 1144 Q 355.5 -100 711 400 Q 1066.5 900 1422 1144"></path><path d="M 0 1122 Q 355.5 -100 711 400 Q 1066.5 900 1422 1122"></path><path d="M 0 1100 Q 355.5 -100 711 400 Q 1066.5 900 1422 1100"></path><path d="M 0 1078 Q 355.5 -100 711 400 Q 1066.5 900 1422 1078"></path><path d="M 0 1056 Q 355.5 -100 711 400 Q 1066.5 900 1422 1056"></path><path d="M 0 1034 Q 355.5 -100 711 400 Q 1066.5 900 1422 1034"></path><path d="M 0 1012 Q 355.5 -100 711 400 Q 1066.5 900 1422 1012"></path><path d="M 0 990 Q 355.5 -100 711 400 Q 1066.5 900 1422 990"></path><path d="M 0 968 Q 355.5 -100 711 400 Q 1066.5 900 1422 968"></path><path d="M 0 946 Q 355.5 -100 711 400 Q 1066.5 900 1422 946"></path><path d="M 0 924 Q 355.5 -100 711 400 Q 1066.5 900 1422 924"></path><path d="M 0 902 Q 355.5 -100 711 400 Q 1066.5 900 1422 902"></path><path d="M 0 880 Q 355.5 -100 711 400 Q 1066.5 900 1422 880"></path><path d="M 0 858 Q 355.5 -100 711 400 Q 1066.5 900 1422 858"></path><path d="M 0 836 Q 355.5 -100 711 400 Q 1066.5 900 1422 836"></path><path d="M 0 814 Q 355.5 -100 711 400 Q 1066.5 900 1422 814"></path><path d="M 0 792 Q 355.5 -100 711 400 Q 1066.5 900 1422 792"></path><path d="M 0 770 Q 355.5 -100 711 400 Q 1066.5 900 1422 770"></path><path d="M 0 748 Q 355.5 -100 711 400 Q 1066.5 900 1422 748"></path><path d="M 0 726 Q 355.5 -100 711 400 Q 1066.5 900 1422 726"></path><path d="M 0 704 Q 355.5 -100 711 400 Q 1066.5 900 1422 704"></path><path d="M 0 682 Q 355.5 -100 711 400 Q 1066.5 900 1422 682"></path><path d="M 0 660 Q 355.5 -100 711 400 Q 1066.5 900 1422 660"></path><path d="M 0 638 Q 355.5 -100 711 400 Q 1066.5 900 1422 638"></path><path d="M 0 616 Q 355.5 -100 711 400 Q 1066.5 900 1422 616"></path><path d="M 0 594 Q 355.5 -100 711 400 Q 1066.5 900 1422 594"></path><path d="M 0 572 Q 355.5 -100 711 400 Q 1066.5 900 1422 572"></path><path d="M 0 550 Q 355.5 -100 711 400 Q 1066.5 900 1422 550"></path><path d="M 0 528 Q 355.5 -100 711 400 Q 1066.5 900 1422 528"></path><path d="M 0 506 Q 355.5 -100 711 400 Q 1066.5 900 1422 506"></path><path d="M 0 484 Q 355.5 -100 711 400 Q 1066.5 900 1422 484"></path><path d="M 0 462 Q 355.5 -100 711 400 Q 1066.5 900 1422 462"></path><path d="M 0 440 Q 355.5 -100 711 400 Q 1066.5 900 1422 440"></path><path d="M 0 418 Q 355.5 -100 711 400 Q 1066.5 900 1422 418"></path><path d="M 0 396 Q 355.5 -100 711 400 Q 1066.5 900 1422 396"></path><path d="M 0 374 Q 355.5 -100 711 400 Q 1066.5 900 1422 374"></path><path d="M 0 352 Q 355.5 -100 711 400 Q 1066.5 900 1422 352"></path><path d="M 0 330 Q 355.5 -100 711 400 Q 1066.5 900 1422 330"></path><path d="M 0 308 Q 355.5 -100 711 400 Q 1066.5 900 1422 308"></path><path d="M 0 286 Q 355.5 -100 711 400 Q 1066.5 900 1422 286"></path><path d="M 0 264 Q 355.5 -100 711 400 Q 1066.5 900 1422 264"></path><path d="M 0 242 Q 355.5 -100 711 400 Q 1066.5 900 1422 242"></path><path d="M 0 220 Q 355.5 -100 711 400 Q 1066.5 900 1422 220"></path><path d="M 0 198 Q 355.5 -100 711 400 Q 1066.5 900 1422 198"></path><path d="M 0 176 Q 355.5 -100 711 400 Q 1066.5 900 1422 176"></path><path d="M 0 154 Q 355.5 -100 711 400 Q 1066.5 900 1422 154"></path><path d="M 0 132 Q 355.5 -100 711 400 Q 1066.5 900 1422 132"></path><path d="M 0 110 Q 355.5 -100 711 400 Q 1066.5 900 1422 110"></path><path d="M 0 88 Q 355.5 -100 711 400 Q 1066.5 900 1422 88"></path><path d="M 0 66 Q 355.5 -100 711 400 Q 1066.5 900 1422 66"></path><path d="M 0 44 Q 355.5 -100 711 400 Q 1066.5 900 1422 44"></path></g></svg>